<svg 
          width="20.5" 
          height="20.5" fill="none" 
          xmlns="http://www.w3.org/2000/svg">
          <path d="M 10.122194290161133 0.0064536090940237045 L 10.25 0 C 10.89720869064331 0 11.429533995687962 0.49187469482421875 11.493546485900879 1.122194766998291 L 11.5 1.25 L 11.5 9 L 19.25 9 C 19.89720869064331 9 20.429533042013645 9.49187421798706 20.493545532226562 10.122194290161133 L 20.5 10.25 C 20.5 10.89720869064331 20.00812578201294 11.429533995687962 19.377805709838867 11.493546485900879 L 19.25 11.5 L 11.5 11.5 L 11.5 19.25 C 11.5 19.89720869064331 11.00812578201294 20.429533042013645 10.377805709838867 20.493545532226562 L 10.25 20.5 C 9.60279130935669 20.5 9.070466004312038 20.00812578201294 9.006453514099121 19.377805709838867 L 9 19.25 L 9 11.5 L 1.25 11.5 C 0.6027913093566895 11.5 0.07046609930694103 11.00812578201294 0.0064536090940237045 10.377805709838867 L 0 10.25 C 0 9.60279130935669 0.49187469482421875 9.070466004312038 1.122194766998291 9.006453514099121 L 1.25 9 L 9 9 L 9 1.25 C 9 0.6027913093566895 9.49187421798706 0.07046609930694103 10.122194290161133 0.0064536090940237045 L 10.25 0 L 10.122194290161133 0.0064536090940237045 Z" fill="rgb(0,0,0)"/>
        </svg>