<svg 
          width="24" 
          height="24.036991119384766" fill="none" 
          xmlns="http://www.w3.org/2000/svg">
          <path d="M 12 23 C 18.62741708755493 23 24 17.851274490356445 24 11.5 C 24 5.148725509643555 18.62741708755493 0 12 0 C 5.372582912445068 0 0 5.148725509643555 0 11.5 C 0 13.210649490356445 0.4401891827583313 15.008487105369568 1.3205674886703491 16.89351463317871 L 1.5159506797790527 17.29878807067871 C 2.1775437593460083 18.62966012954712 2.212774097919464 20.18587613105774 1.6120858192443848 21.545324325561523 C 1.0550336837768555 22.80601727962494 0.9602285623550415 23.58946967124939 1.3276704549789429 23.895681381225586 C 1.7300792336463928 24.231033086776733 2.888597011566162 23.96949678659439 4.803224086761475 23.11107063293457 L 5.319840908050537 22.873586654663086 C 6.309357583522797 22.408245652914047 7.421714663505554 22.281155198812485 8.486469268798828 22.50733184814453 L 8.751567840576172 22.571245193481445 C 9.809715509414673 22.857082098722458 10.892526149749756 23 12 23 Z" fill="rgb(0,0,0)"/>
        </svg>