<svg 
          width="17.856992721557617" 
          height="17.856992721557617" fill="none" 
          xmlns="http://www.w3.org/2000/svg">
          <path d="M 7.28111457824707 10.474991798400879 L 7.3820013999938965 10.575878143310547 C 9.119279384613037 12.257821917533875 10.573192119598389 13.047722943127155 11.74374008178711 12.945581436157227 L 12.081062316894531 12.630870819091797 C 12.560823410749435 12.194321513175964 12.922582551836967 11.91759505867958 13.166339874267578 11.800689697265625 C 13.673793077468872 11.55731649696827 14.029899179935455 11.562168657779694 14.991649627685547 12.08254623413086 C 16.25686800479889 12.767122268676758 17.130462914705276 13.562871247529984 17.576858520507812 14.00926685333252 C 17.991368740797043 14.42377707362175 17.86259236931801 15.137858390808105 17.717029571533203 15.454610824584961 L 17.620609283447266 15.631308555603027 C 17.36158412694931 16.08130857348442 16.422283411026 17.565790951251984 14.62211799621582 17.819766998291016 C 13.937988758087158 17.916287250816822 13.074377059936523 17.827795207500458 12.061796188354492 17.5228214263916 C 9.892731666564941 16.77188503742218 7.732707738876343 15.395563840866089 5.581725120544434 13.393857955932617 L 5.199188232421875 13.030451774597168 L 5.195586681365967 13.034062385559082 L 5.010972499847412 12.846185684204102 L 4.822930335998535 12.661405563354492 L 4.826541423797607 12.657804489135742 L 4.463134765625 12.275267601013184 C 2.4614288806915283 10.124284982681274 1.0851077139377594 7.964261531829834 0.334171324968338 5.795197010040283 C 0.02919754385948181 4.782616138458252 -0.05929543450474739 3.91900372505188 0.037224818021059036 3.2348744869232178 C 0.3091745562851429 1.3073127269744873 1.991958498954773 0.36677244305610657 2.3048770427703857 0.19154702126979828 L 2.336655855178833 0.17361381649971008 C 2.6075034737586975 0.017427891492843628 3.4013300240039825 -0.16626134514808655 3.8477256298065186 0.28013426065444946 L 4.059084415435791 0.4974979758262634 C 4.519209384918213 0.9841206073760986 5.187667071819305 1.780869722366333 5.774446487426758 2.865342617034912 C 6.294824063777924 3.8270930647850037 6.299676701426506 4.183199167251587 6.05630350112915 4.690652370452881 C 5.913419172167778 4.988577991724014 5.531788408756256 5.462778151035309 4.911411285400391 6.113252639770508 C 4.809269778430462 7.2838006019592285 5.599170804023743 8.737713813781738 7.28111457824707 10.474991798400879 Z" fill="rgb(0,0,0)"/>
        </svg>